<svg xmlns="http://www.w3.org/2000/svg" viewBox="0 0 268 64" role="img" aria-label="Arks Scanner">
  <defs>
    <linearGradient id="tile" x1="0" y1="0" x2="1" y2="1"><stop offset="0" stop-color="#26875f"/><stop offset="1" stop-color="#114a36"/></linearGradient>
    <linearGradient id="beam" x1="0" y1="0" x2="1" y2="0"><stop offset="0" stop-color="#5df2c6" stop-opacity="0"/><stop offset=".18" stop-color="#5df2c6"/><stop offset=".82" stop-color="#5df2c6"/><stop offset="1" stop-color="#5df2c6" stop-opacity="0"/></linearGradient>
  </defs>
  <rect width="64" height="64" rx="15" fill="url(#tile)"/>
  <path d="M12 21v-6a3 3 0 0 1 3-3h6M43 12h6a3 3 0 0 1 3 3v6M52 43v6a3 3 0 0 1-3 3h-6M21 52h-6a3 3 0 0 1-3-3v-6" fill="none" stroke="#fff" stroke-opacity=".5" stroke-width="2.6" stroke-linecap="round"/>
  <path d="M21 47L32 18l11 29" fill="none" stroke="#fff" stroke-width="5.4" stroke-linecap="round" stroke-linejoin="round"/>
  <rect x="13" y="35" width="38" height="3.4" rx="1.7" fill="url(#beam)"/>
  <text x="80" y="42" font-family="'IBM Plex Sans','Segoe UI',Arial,sans-serif" font-size="30" letter-spacing="-.6">
    <tspan font-weight="700" fill="#16392c">Arks</tspan><tspan font-weight="500" fill="#3e4b45" dx="7">Scanner</tspan>
  </text>
</svg>
